<svg id="Layer_1" data-name="Layer 1" xmlns="http://www.w3.org/2000/svg" xmlns:xlink="http://www.w3.org/1999/xlink" viewBox="0 0 280 300"><defs><style>.cls-1{fill:#e32487;}.cls-2{fill:url(#linear-gradient);}.cls-3{fill:url(#radial-gradient);}.cls-4{fill:url(#linear-gradient-2);}</style><linearGradient id="linear-gradient" x1="20.63" y1="271.4" x2="29.8" y2="281.15" gradientTransform="matrix(9.04, 0, 0, -9.04, -105.34, 2674.33)" gradientUnits="userSpaceOnUse"><stop offset="0" stop-color="#e01f84"/><stop offset="0.4" stop-color="#df1d85"/><stop offset="0.77" stop-color="#942c87"/><stop offset="1" stop-color="#5e3089"/></linearGradient><radialGradient id="radial-gradient" cx="30.57" cy="295.62" r="8.96" gradientTransform="matrix(9.04, 0.02, 0.02, -7.56, -109.33, 2343.24)" gradientUnits="userSpaceOnUse"><stop offset="0" stop-color="#e01f84"/><stop offset="0.14" stop-color="#de1f86"/><stop offset="0.28" stop-color="#d72185"/><stop offset="0.43" stop-color="#ca2486"/><stop offset="0.59" stop-color="#b72886"/><stop offset="0.74" stop-color="#9f2b88"/><stop offset="0.89" stop-color="#7d2e88"/><stop offset="1" stop-color="#5e3089"/></radialGradient><linearGradient id="linear-gradient-2" x1="22.82" y1="285.06" x2="26.81" y2="285.06" gradientTransform="matrix(9.04, 0, 0, -9.04, -105.34, 2674.33)" gradientUnits="userSpaceOnUse"><stop offset="0" stop-color="#e01f84"/><stop offset="0.24" stop-color="#da2085"/><stop offset="0.66" stop-color="#c82185"/><stop offset="1" stop-color="#b52485"/></linearGradient></defs><title>rxjs logo</title><path class="cls-1" d="M65.24,172.36a71,71,0,0,1-2.46-33.92,117.41,117.41,0,0,1,3.66-14.26s9.2-30.19,40.32-44c0,0,10.72-5.67,26.85-6.06a34.6,34.6,0,0,0-3.6-3.07c-7.6-5.06-18.92-6.73-25.79.4-2.06,2.13-3.79,4.46-5.73,6.6a20.63,20.63,0,0,1-7.93,5.53c-2.66,1-5.33.8-8.06,1.26a17.4,17.4,0,0,0-7.93,3.27,10.53,10.53,0,0,0-3.73,7.73c-.27,2.4-.2,4.86-.33,7.26-.34,7.06-2.6,9.06-7.67,13a20.5,20.5,0,0,0-5.26,6c-4,7.07,2.4,14.4,2.73,21.53a10.68,10.68,0,0,1-.6,4.33c-.53,1.53-1.6,2.53-2.46,3.8a7.79,7.79,0,0,0-1.67,5.73,18.36,18.36,0,0,0,2.4,5.79,54.59,54.59,0,0,0,6.86,8.8c.14,0,.27.13.4.27"/><path class="cls-2" d="M192.38,197.94c15.33-6.66,21.86-18.19,21.86-18.19a52.41,52.41,0,0,0,9.46-40.11C214.57,159.49,206.24,165,206.24,165c22.46-34.18.14-54.84.14-54.84,9.12,19.46-3,43.18-3,43.18-10.2,21.45-24.66,29.12-24.66,29.12,16.13,3,28-7.87,28-7.87-23.12,25-48.18,23.79-48.18,23.79,10.53,11.8,26.32,10.8,26.32,10.8-20.65,4.86-40-2-56-15.26a87,87,0,0,1-8.53-8s-2.4-2.53-2.87-3.2l-.06-.06c-.34,12.33,12.52,23.79,12.52,23.79-16.12-6.67-23.52-21.13-23.52-21.13s-10.86-18.52-3-39.65S135.08,120,135.08,120a156,156,0,0,0,36.31,12.53c35.12,5.86,33.12-11.33,33.12-11.33.33-14.79-22-30.52-22-30.52C142.74,61.14,106.76,80.2,106.76,80.2c-31.12,13.79-40.32,44-40.32,44a117.41,117.41,0,0,0-3.66,14.26c-3.4,19.79,1.73,38.51,12.86,55.17C93,219.47,121.08,228.4,121.08,228.4c41.65,14.12,70.1-6.67,70.1-6.67,26.19-18,31.45-38.78,31.45-38.78-21.12,16.53-30.25,15-30.25,15Zm-32.52-97.22a3.6,3.6,0,1,1-3.59,3.6A3.59,3.59,0,0,1,159.86,100.72Z"/><path class="cls-3" d="M204.44,121.11c.34-14.79-22-30.52-22-30.52C142.67,61.14,106.69,80.2,106.69,80.2c-31.12,13.79-40.32,44-40.32,44a125.1,125.1,0,0,0-3.39,13,74.16,74.16,0,0,0-1.07,19,72.65,72.65,0,0,0,2.73,14.6A76,76,0,0,0,67.57,179c-.06-.2-.4-1.66-.4-1.66s-2.79-13.46-.2-26.39c0,0,2.27-13.46,11.47-23.86,0,0,14.92-21.25,42.71-12.92,0,0,6,2.13,8.06,3.19s5.67,2.54,5.67,2.54a155.68,155.68,0,0,0,36.31,12.52C206.44,138.3,204.44,121.11,204.44,121.11ZM159.86,108a3.6,3.6,0,1,1,3.6-3.6A3.58,3.58,0,0,1,159.86,108Z"/><path class="cls-4" d="M137.07,94.33l-22.72-7.07a3.48,3.48,0,0,0-2,0S99,90.66,101.29,98a28.32,28.32,0,0,0,5.2,9.06l25-1.2Z"/></svg>