<?xml version="1.0" standalone="no"?>
<!DOCTYPE svg PUBLIC "-//W3C//DTD SVG 20010904//EN"
 "http://www.w3.org/TR/2001/REC-SVG-20010904/DTD/svg10.dtd">
<svg version="1.0" xmlns="http://www.w3.org/2000/svg"
 width="254.000000pt" height="252.000000pt" viewBox="0 0 254.000000 252.000000"
 preserveAspectRatio="xMidYMid meet">

<g transform="translate(0.000000,252.000000) scale(0.100000,-0.100000)"
fill="#000000" stroke="none">
<path d="M1052 1788 c-20 -20 -14 -28 23 -28 19 0 35 4 35 8 0 12 -22 32 -35
32 -6 0 -16 -5 -23 -12z"/>
<path d="M1457 1793 c-17 -16 -5 -33 23 -33 32 0 37 9 18 28 -13 13 -31 16
-41 5z"/>
<path d="M1220 1526 c0 -32 102 -32 114 -1 4 12 -6 15 -54 15 -45 0 -60 -3
-60 -14z"/>
<path d="M1504 884 c-115 -141 -210 -260 -212 -264 -3 -7 153 -60 176 -60 6 0
48 46 93 103 316 392 320 397 345 397 21 0 23 3 15 18 -6 12 -39 25 -98 40
-48 12 -93 22 -99 22 -6 0 -105 -115 -220 -256z"/>
<path d="M1870 933 c-112 -142 -229 -290 -290 -365 l-30 -36 68 -20 c37 -12
79 -24 93 -27 24 -6 40 11 235 254 163 204 212 260 226 255 29 -9 22 25 -7 36
-14 5 -53 16 -88 24 -34 8 -69 17 -77 20 -11 4 -49 -37 -130 -141z"/>
</g>
</svg>
